<svg xmlns="http://www.w3.org/2000/svg" viewBox="0 0 800 600" style="background-color:#f5f7fa">
  <!-- Background elements -->
  <rect x="100" y="150" width="600" height="350" rx="20" fill="#fff" stroke="#e0e0e0" stroke-width="2"/>
  
  <!-- Main dashboard -->
  <rect x="150" y="200" width="500" height="250" rx="10" fill="#f8f9fa" stroke="#3f51b5" stroke-width="2"/>
  
  <!-- User cards -->
  <rect x="180" y="230" width="120" height="80" rx="5" fill="#fff" stroke="#e0e0e0" stroke-width="1"/>
  <circle cx="220" cy="265" r="20" fill="#3f51b5"/>
  <rect x="250" cy="255" width="40" height="10" rx="2" fill="#e0e0e0"/>
  <rect x="250" cy="275" width="60" height="8" rx="2" fill="#e0e0e0"/>
  
  <rect x="180" y="330" width="120" height="80" rx="5" fill="#fff" stroke="#e0e0e0" stroke-width="1"/>
  <circle cx="220" cy="365" r="20" fill="#ff9800"/>
  <rect x="250" cy="355" width="40" height="10" rx="2" fill="#e0e0e0"/>
  <rect x="250" cy="375" width="60" height="8" rx="2" fill="#e0e0e0"/>
  
  <rect x="330" y="230" width="120" height="80" rx="5" fill="#fff" stroke="#e0e0e0" stroke-width="1"/>
  <circle cx="370" cy="265" r="20" fill="#4caf50"/>
  <rect x="400" cy="255" width="40" height="10" rx="2" fill="#e0e0e0"/>
  <rect x="400" cy="275" width="60" height="8" rx="2" fill="#e0e0e0"/>
  
  <rect x="330" y="330" width="120" height="80" rx="5" fill="#fff" stroke="#e0e0e0" stroke-width="1"/>
  <circle cx="370" cy="365" r="20" fill="#f44336"/>
  <rect x="400" cy="355" width="40" height="10" rx="2" fill="#e0e0e0"/>
  <rect x="400" cy="375" width="60" height="8" rx="2" fill="#e0e0e0"/>
  
  <!-- Graph elements -->
  <path d="M500 230 L520 250 L540 220 L560 270 L580 240 L600 290" stroke="#3f51b5" stroke-width="3" fill="none"/>
  <path d="M500 250 L520 270 L540 240 L560 290 L580 260 L600 310" stroke="#ff9800" stroke-width="3" fill="none"/>
  
  <!-- Stats panel -->
  <rect x="500" y="330" width="130" height="80" rx="5" fill="#3f51b5"/>
  <text x="565" y="360" font-family="Arial" font-size="24" fill="#fff" text-anchor="middle">1,248</text>
  <text x="565" y="385" font-family="Arial" font-size="14" fill="#fff" text-anchor="middle">Users</text>
  
  <!-- Floating users -->
  <circle cx="100" cy="100" r="30" fill="#3f51b5" opacity="0.8"/>
  <circle cx="700" cy="80" r="25" fill="#ff9800" opacity="0.8"/>
  <circle cx="650" cy="500" r="20" fill="#4caf50" opacity="0.8"/>
  
  <!-- Icons -->
  <path d="M180 450 L220 450 M200 430 L200 470" stroke="#3f51b5" stroke-width="3" stroke-linecap="round"/>
  <path d="M300 430 L300 470 M280 450 L320 450" stroke="#4caf50" stroke-width="3" stroke-linecap="round"/>
  <path d="M400 430 L400 470 L380 450 L420 450 Z" stroke="#ff9800" stroke-width="2" fill="none"/>
</svg>